<svg width="19" height="20" viewBox="0 0 19 20" fill="none"
    xmlns="http://www.w3.org/2000/svg">
    <path d="M1.39478 5H17.5M7.43425 9V15M11.4606 9V15M2.40135 5L3.40793 17C3.40793 17.5304 3.62003 18.0391 3.99757 18.4142C4.37511 18.7893 4.88717 19 5.42109 19H13.4737C14.0076 19 14.5197 18.7893 14.8972 18.4142C15.2748 18.0391 15.4869 17.5304 15.4869 17L16.4935 5M6.42767 5V2C6.42767 1.73478 6.53372 1.48043 6.72249 1.29289C6.91126 1.10536 7.16729 1 7.43425 1H11.4606C11.7275 1 11.9836 1.10536 12.1723 1.29289C12.3611 1.48043 12.4671 1.73478 12.4671 2V5" stroke="#FF3B3B" stroke-width="2" stroke-linecap="round" stroke-linejoin="round"/>
</svg>
