<svg width="21" height="21" viewBox="0 0 21 21" fill="none"
    xmlns="http://www.w3.org/2000/svg">
    <path d="M4.35292 5.47068H3.23528C2.64245 5.47068 2.07389 5.70618 1.6547 6.12538C1.2355 6.54457 1 7.11313 1 7.70596V17.7647C1 18.3576 1.2355 18.9261 1.6547 19.3453C2.07389 19.7645 2.64245 20 3.23528 20H13.294C13.8869 20 14.4554 19.7645 14.8746 19.3453C15.2938 18.9261 15.5293 18.3576 15.5293 17.7647V16.6471M14.4117 3.2354L17.7646 6.58832M19.3125 5.00686C19.7527 4.56668 20 3.96967 20 3.34716C20 2.72466 19.7527 2.12765 19.3125 1.68747C18.8724 1.24729 18.2753 1 17.6528 1C17.0303 1 16.4333 1.24729 15.9931 1.68747L6.5882 11.0589V14.4118H9.94112L19.3125 5.00686Z" stroke="#6BA539" stroke-width="2" stroke-linecap="round" stroke-linejoin="round"/>
</svg>
